<?xml version="1.0" encoding="UTF-8"?>
<svg version="1.1" xmlns="http://www.w3.org/2000/svg" width="25" height="25">
<path d="M0 0 C8.25 0 16.5 0 25 0 C25 8.25 25 16.5 25 25 C16.75 25 8.5 25 0 25 C0 16.75 0 8.5 0 0 Z " fill="#FBFDFB" transform="translate(0,0)"/>
<path d="M0 0 C1.66611905 -0.042721 3.33382885 -0.04063832 5 0 C6 1 6 1 6.0625 3.5625 C6.041875 4.366875 6.02125 5.17125 6 6 C7.65 6 9.3 6 11 6 C11.7578125 8.1640625 11.7578125 8.1640625 12 11 C10.3046875 13.7109375 10.3046875 13.7109375 7.875 16.375 C7.08867187 17.26960938 6.30234375 18.16421875 5.4921875 19.0859375 C3 21 3 21 0.1953125 20.7890625 C-0.52914063 20.52867188 -1.25359375 20.26828125 -2 20 C-2.33 18.35 -2.66 16.7 -3 15 C-4.65 14.67 -6.3 14.34 -8 14 C-8.4375 11.9375 -8.4375 11.9375 -8 9 C-6.33597461 7.011703 -4.54466217 5.29624776 -2.62890625 3.55078125 C-0.89771837 2.07829883 -0.89771837 2.07829883 0 0 Z " fill="#FCCB56" transform="translate(11,3)"/>
<path d="M0 0 C1.66611905 -0.042721 3.33382885 -0.04063832 5 0 C6 1 6 1 6.0625 4.0625 C6.041875 5.031875 6.02125 6.00125 6 7 C5.01 7.33 4.02 7.66 3 8 C2.34 7.34 1.68 6.68 1 6 C-0.65 7.98 -2.3 9.96 -4 12 C-2.68 12.33 -1.36 12.66 0 13 C-2 15 -2 15 -4.5625 15.1875 C-7 15 -7 15 -8 14 C-8.5 11.875 -8.5 11.875 -8 9 C-6.33238613 7.01677634 -4.54359828 5.29527843 -2.62890625 3.55078125 C-0.89771837 2.07829883 -0.89771837 2.07829883 0 0 Z " fill="#4DB2B7" transform="translate(11,3)"/>
<path d="M0 0 C0.433125 0.474375 0.86625 0.94875 1.3125 1.4375 C3.02309613 3.23686957 3.02309613 3.23686957 6 4 C4.60667426 7.36720387 3.0210714 8.9859524 0 11 C-0.33 10.01 -0.66 9.02 -1 8 C-3.01508358 7.26676204 -3.01508358 7.26676204 -5 7 C-3.70700306 4.11562221 -2.34058637 2.12780579 0 0 Z " fill="#F8FBFA" transform="translate(12,8)"/>
<path d="M0 0 C0.78375 0.04125 1.5675 0.0825 2.375 0.125 C0.89 2.6 0.89 2.6 -0.625 5.125 C-0.955 4.465 -1.285 3.805 -1.625 3.125 C-2.615 2.795 -3.605 2.465 -4.625 2.125 C-2.625 0.125 -2.625 0.125 0 0 Z " fill="#FCCD57" transform="translate(19.625,8.875)"/>
<path d="M0 0 C1.32 0 2.64 0 4 0 C4 1.98 4 3.96 4 6 C3.01 6.33 2.02 6.66 1 7 C1.33 5.02 1.66 3.04 2 1 C1.34 0.67 0.68 0.34 0 0 Z " fill="#41AAB1" transform="translate(13,4)"/>
</svg>
