<svg xmlns="http://www.w3.org/2000/svg" width="500" height="200" viewBox="0 0 500 200" version="1.1"><path d="M 119.818 85.883 C 113.963 91.172, 109.330 95.659, 109.522 95.853 C 110.101 96.436, 129.283 100.101, 132.323 100.208 L 135.146 100.309 132.823 102.494 C 131.545 103.695, 124.425 110.029, 117 116.570 C 109.575 123.110, 101.925 129.928, 100 131.722 C 98.075 133.515, 96.211 134.987, 95.858 134.991 C 95.506 134.996, 94.914 133.762, 94.544 132.250 C 92.661 124.549, 88.641 112.944, 88.108 113.671 C 87.586 114.383, 70.126 130.012, 69.150 130.641 C 68.741 130.904, 70.148 135.373, 74.182 146.620 L 77.095 154.739 90.077 157.516 C 102.983 160.277, 103.072 160.282, 105.279 158.342 C 106.501 157.268, 113.575 151.017, 121 144.450 C 128.425 137.883, 136.059 131.158, 137.965 129.505 C 139.871 127.852, 146.282 121.772, 152.213 115.993 L 162.995 105.486 160.496 97.493 C 159.121 93.097, 157.498 87.885, 156.888 85.911 C 155.783 82.333, 155.750 82.316, 145.640 80.066 C 140.063 78.824, 134.367 77.462, 132.982 77.037 C 130.764 76.358, 129.196 77.412, 119.818 85.883 M 394.370 139.250 C 394.701 140.488, 394.979 145.662, 394.986 150.750 C 394.999 159.329, 395.145 160, 397 160 C 398.884 160, 399 159.333, 399 148.500 L 399 137 396.383 137 C 394.158 137, 393.857 137.336, 394.370 139.250 M 296.299 139.960 C 289.352 144.195, 288.305 152.555, 294.111 157.440 C 297.726 160.482, 300.337 161.250, 305.595 160.820 C 308.929 160.547, 309.543 160.129, 309.796 157.964 C 310.082 155.514, 309.901 155.429, 304.428 155.429 C 299.481 155.429, 298.464 155.079, 296.383 152.659 C 293.374 149.161, 293.400 148.461, 296.646 145.452 C 298.612 143.630, 300.410 143, 303.646 143 C 307.624 143, 308 142.784, 308 140.500 C 308 138.225, 307.618 138, 303.750 138.004 C 301.301 138.006, 298.144 138.835, 296.299 139.960 M 418 140.500 C 418 142.500, 418.500 143, 420.500 143 C 422.500 143, 423 142.500, 423 140.500 C 423 138.500, 422.500 138, 420.500 138 C 418.500 138, 418 138.500, 418 140.500 M 406 141.889 C 406 143.074, 405.348 143.726, 404.250 143.639 C 403.040 143.543, 402.402 144.349, 402.184 146.250 C 401.958 148.214, 402.315 149, 403.434 149 C 404.502 149, 405 149.939, 405 151.953 C 405 156.245, 407 159.962, 409.669 160.632 C 413.137 161.502, 415 160.381, 415 157.424 C 415 155.490, 414.600 154.940, 413.500 155.362 C 410.910 156.356, 409 154.912, 409 151.959 C 409 149.619, 409.473 149.078, 411.750 148.816 C 413.932 148.565, 414.500 147.984, 414.500 146 C 414.500 144.016, 413.932 143.435, 411.750 143.184 C 410.176 143.002, 409 142.254, 409 141.434 C 409 140.645, 408.325 140, 407.500 140 C 406.675 140, 406 140.850, 406 141.889 M 462.199 142.201 C 461.538 142.862, 459.086 143.285, 456.749 143.142 C 453.539 142.945, 451.935 143.408, 450.190 145.036 C 448.137 146.950, 447.953 147.778, 448.540 152.474 C 448.970 155.917, 448.817 157.995, 448.100 158.438 C 445.978 159.750, 446.855 164.859, 449.500 166.592 C 450.875 167.493, 452 169.078, 452 170.115 C 452 171.649, 452.749 172, 456.025 172 C 459.260 172, 460.229 171.559, 460.966 169.750 C 461.471 168.512, 463.035 166.440, 464.442 165.145 C 468.889 161.052, 466.858 156.075, 460.679 155.921 C 458.930 155.878, 458.175 155.594, 459 155.291 C 461.846 154.244, 464 151.683, 464 149.345 C 464 147.927, 464.593 147, 465.500 147 C 466.500 147, 467 146, 467 144 C 467 141.778, 466.533 141, 465.200 141 C 464.210 141, 462.859 141.541, 462.199 142.201 M 315.522 145.250 C 313.977 146.592, 312.695 148.994, 312.343 151.204 C 311.834 154.404, 312.168 155.321, 314.800 157.954 C 321.168 164.322, 331 160.336, 331 151.385 C 331 147.996, 330.472 146.729, 328.365 145.073 C 324.768 142.243, 318.889 142.324, 315.522 145.250 M 335.522 143.811 C 335.235 144.099, 335 147.890, 335 152.236 C 335 159.860, 335.080 160.128, 337.250 159.820 C 339.227 159.539, 339.510 158.893, 339.585 154.500 C 339.659 150.080, 339.965 149.395, 342.218 148.598 C 346.708 147.009, 348 148.320, 348 154.469 C 348 159.333, 348.241 160, 350 160 C 351.804 160, 351.998 159.338, 351.985 153.250 C 351.964 144.027, 351.506 143.521, 343.058 143.395 C 339.200 143.337, 335.809 143.524, 335.522 143.811 M 358.250 144.522 C 355.744 146.294, 355.275 150.153, 357.355 151.880 C 358.100 152.498, 360.463 153.673, 362.605 154.490 L 366.500 155.976 361.500 155.738 C 356.770 155.513, 356.500 155.635, 356.500 158 C 356.500 160.266, 356.936 160.528, 361.163 160.801 C 364.942 161.045, 366.223 160.677, 367.913 158.863 C 369.061 157.631, 370 156.119, 370 155.503 C 370 153.292, 367.404 150.902, 363.487 149.507 C 359.395 148.050, 359.997 147.658, 365.831 147.982 C 368.789 148.146, 369.124 147.906, 368.831 145.834 C 368.556 143.892, 367.828 143.452, 364.500 143.215 C 362.043 143.040, 359.632 143.544, 358.250 144.522 M 427 151.714 C 427 159.333, 427.161 160, 429 160 C 430.756 160, 431 159.333, 431 154.545 C 431 149.123, 431.020 149.087, 434.435 148.446 C 436.324 148.092, 438.349 148.098, 438.935 148.460 C 439.521 148.822, 440 151.566, 440 154.559 C 440 159.333, 440.245 160, 442 160 C 443.809 160, 444 159.333, 444 153.023 C 444 144.296, 442.568 142.996, 433.238 143.255 L 427 143.427 427 151.714 M 373.189 150.634 C 373.535 156.055, 374.033 157.608, 375.917 159.134 C 378.302 161.065, 384.458 161.686, 385.442 160.094 C 385.750 159.596, 386.902 159.423, 388.001 159.711 C 389.878 160.201, 390 159.740, 390 152.117 C 390 144.667, 389.836 144, 388 144 C 386.247 144, 386 144.667, 386 149.392 C 386 154.261, 385.766 154.842, 383.579 155.391 C 379.145 156.504, 378 155.273, 378 149.393 C 378 144.243, 377.882 144, 375.384 144 C 372.782 144, 372.769 144.038, 373.189 150.634 M 418 152 C 418 159.333, 418.167 160, 420 160 C 421.833 160, 422 159.333, 422 152 C 422 144.667, 421.833 144, 420 144 C 418.167 144, 418 144.667, 418 152 M 319.308 148.265 C 315.155 150.139, 315.380 154.555, 319.684 155.636 C 322.947 156.455, 327 154.520, 327 152.144 C 327 148.811, 322.796 146.691, 319.308 148.265 M 453.695 147.711 C 451.046 148.381, 452.209 150.448, 455.449 150.828 C 457.961 151.123, 461.024 149.629, 459.933 148.641 C 459.017 147.811, 455.420 147.275, 453.695 147.711 M 451 161.393 C 451 162.672, 452.110 163, 456.441 163 C 459.434 163, 462.160 162.550, 462.500 162 C 462.877 161.390, 461.371 161, 458.641 161 C 456.178 161, 453.452 160.727, 452.582 160.393 C 451.544 159.995, 451 160.338, 451 161.393" stroke="none" fill="#f9c956" fill-rule="evenodd"/><path d="M 93 46.880 C 93 48.565, 86.628 54.856, 66.038 73.500 C 63.001 76.250, 57.587 81.244, 54.008 84.597 C 50.429 87.950, 44.735 93.125, 41.354 96.097 C 37.974 99.069, 34.933 102.111, 34.595 102.857 C 33.914 104.362, 40.643 124.854, 42.394 126.608 C 43.002 127.217, 49.060 128.666, 55.855 129.827 L 68.210 131.938 72.855 127.601 C 75.410 125.215, 79.829 121.292, 82.676 118.882 C 85.523 116.472, 87.886 113.988, 87.926 113.361 C 87.967 112.735, 86.313 111.937, 84.250 111.587 C 82.188 111.238, 76.492 110.208, 71.594 109.299 L 62.687 107.646 67.213 103.573 C 69.703 101.333, 78.339 93.479, 86.406 86.119 C 94.472 78.760, 101.219 72.910, 101.400 73.119 C 101.580 73.329, 103.195 78, 104.988 83.500 C 106.781 89, 108.569 93.853, 108.959 94.285 C 109.777 95.189, 128.997 78.214, 129.005 76.581 C 129.008 75.986, 127.321 70.437, 125.255 64.249 C 120.985 51.455, 122.114 52.331, 106.834 49.948 C 100.772 49.003, 99.066 48.360, 98.678 46.876 C 97.993 44.256, 93 44.259, 93 46.880 M 360.105 67.374 C 359.302 68.341, 359.044 76.111, 359.232 93.624 L 359.500 118.500 361.887 118.837 C 363.200 119.023, 364.655 118.573, 365.122 117.837 C 365.588 117.102, 365.976 105.845, 365.985 92.821 C 365.998 72.615, 365.770 68.912, 364.429 67.571 C 362.499 65.641, 361.577 65.599, 360.105 67.374 M 179.490 69.165 C 179.200 69.921, 179.084 81.331, 179.231 94.520 L 179.500 118.500 195 118.436 C 211.747 118.367, 215.929 117.342, 223.727 111.395 C 235.085 102.731, 235.208 85.084, 223.975 75.633 C 217.082 69.833, 212.771 68.701, 195.759 68.228 C 183.028 67.875, 179.917 68.054, 179.490 69.165 M 294.200 74.200 C 293.540 74.860, 293 77.335, 293 79.700 L 293 84 288.937 84 C 284.955 84, 284.880 84.065, 285.187 87.250 C 285.472 90.212, 285.830 90.527, 289.222 90.809 L 292.944 91.117 293.222 104.809 L 293.500 118.500 296.500 118.500 L 299.500 118.500 299.778 104.806 L 300.056 91.112 304.176 90.806 C 308.564 90.480, 310.760 88.422, 309.691 85.636 C 309.237 84.454, 307.804 84, 304.531 84 L 300 84 300 79.700 C 300 75.492, 298.698 73, 296.500 73 C 295.895 73, 294.860 73.540, 294.200 74.200 M 186 93.523 L 186 112.297 197.357 111.738 C 206.886 111.269, 209.532 110.764, 213.795 108.604 C 226.210 102.313, 228.595 89.727, 218.915 81.582 C 213.479 77.008, 209.261 75.774, 197.250 75.244 L 186 74.748 186 93.523 M 421.123 83.374 C 414.157 85.894, 411.958 92.515, 416.379 97.655 C 417.688 99.176, 421.365 101.789, 424.551 103.460 C 427.737 105.132, 430.802 107.250, 431.364 108.166 C 434.236 112.856, 422.922 115.240, 419.323 110.703 C 418.320 109.440, 416.978 108.088, 416.340 107.700 C 414.353 106.490, 412 108.101, 412 110.673 C 412 116.663, 416.835 120, 425.516 120 C 431.497 120, 434.416 118.923, 437.277 115.659 C 442.810 109.347, 439.257 101.826, 428.454 96.980 C 421.721 93.959, 419.963 92.271, 422.122 90.904 C 424.899 89.145, 428.901 89.920, 430.625 92.550 C 432.896 96.016, 436.382 95.530, 436.823 91.685 C 437.279 87.704, 434.850 84.571, 430.234 83.188 C 425.570 81.791, 425.494 81.792, 421.123 83.374 M 249.637 84.465 C 232.213 90.676, 233.335 113.211, 251.356 118.989 C 257.308 120.897, 266.077 119.876, 270.846 116.721 L 274.873 114.056 275.186 116.769 C 275.567 120.065, 278.776 121.027, 280.684 118.418 C 282.547 115.870, 282.547 87.130, 280.684 84.582 C 278.943 82.202, 275.586 82.920, 275.180 85.760 C 275.005 86.992, 274.780 87.998, 274.680 87.996 C 274.581 87.994, 272.286 86.869, 269.581 85.496 C 263.927 82.627, 255.948 82.215, 249.637 84.465 M 320.637 84.404 C 310.086 88.331, 305.205 99.601, 309.991 108.982 C 315.349 119.486, 331.675 123.452, 341.846 116.721 L 345.873 114.056 346.186 116.769 C 346.536 119.795, 349.220 120.892, 351.548 118.960 C 353.552 117.297, 353.671 87.299, 351.684 84.582 C 349.943 82.202, 346.586 82.920, 346.180 85.760 C 345.787 88.521, 345.547 88.526, 341.778 85.842 C 337.877 83.064, 326.344 82.280, 320.637 84.404 M 369.667 84.667 C 368.349 85.984, 369.205 89.576, 371.829 93.736 C 379.790 106.361, 385 114.932, 385 115.406 C 385 115.701, 383.065 119.218, 380.700 123.221 C 378.335 127.225, 376.099 131.287, 375.731 132.250 C 374.721 134.894, 375.943 137, 378.487 137 C 380.372 137, 382.622 133.877, 391.630 118.759 C 409.301 89.103, 409.974 87.819, 408.891 85.796 C 406.346 81.041, 404.017 83.700, 391.452 105.705 L 389.622 108.909 383.411 98.705 C 379.995 93.092, 376.459 87.487, 375.553 86.250 C 373.963 84.077, 371.042 83.291, 369.667 84.667 M 253.208 90.711 C 251.948 90.953, 249.360 92.706, 247.458 94.608 C 241.663 100.404, 243.090 106.964, 251.026 111.013 C 263.661 117.459, 279.705 106.256, 272.304 96.156 C 268.574 91.065, 261.658 89.093, 253.208 90.711 M 324.208 90.653 C 320.402 91.478, 315 97.624, 315 101.129 C 315 110.103, 328.314 115.943, 337.964 111.202 C 342.547 108.951, 346.303 103.374, 345.493 100.025 C 345.157 98.636, 343.402 96.001, 341.593 94.169 C 338.729 91.268, 337.542 90.794, 332.402 90.497 C 329.156 90.310, 325.469 90.380, 324.208 90.653" stroke="none" fill="#49a7b8" fill-rule="evenodd"/></svg>