<svg xmlns="http://www.w3.org/2000/svg" width="779" height="320" viewBox="0 0 779 320" version="1.1"><path d="M 148.300 52.411 C 147.860 53.187, 146.150 55.334, 144.500 57.183 C 142.850 59.031, 139.260 63.233, 136.522 66.521 C 133.785 69.810, 131.301 72.725, 131.004 73 C 130.706 73.275, 128.093 76.425, 125.196 80 C 122.300 83.575, 118.899 87.625, 117.639 89 C 116.379 90.375, 109.714 98.250, 102.828 106.500 C 95.941 114.750, 82.415 130.846, 72.769 142.269 L 55.231 163.038 59.698 180.269 C 62.154 189.746, 64.520 199.075, 64.954 201 C 66.041 205.814, 67.795 210, 68.726 210 C 70.517 210, 90.457 214.692, 106.543 218.899 L 110.587 219.957 113.441 231.228 C 115.010 237.428, 116.938 244.750, 117.725 247.500 C 118.512 250.250, 119.623 254.300, 120.194 256.500 C 122.086 263.791, 123.137 265.792, 125.329 266.281 C 127.641 266.796, 149.239 273.017, 157.365 275.508 C 164.972 277.841, 163.019 279.028, 175.500 264.489 C 178.800 260.645, 181.725 257.275, 182 257 C 187.309 251.691, 195.986 240.787, 195.513 240.020 C 195.166 239.459, 195.514 239, 196.287 239 C 197.060 239, 202.815 233.038, 209.075 225.750 C 215.336 218.463, 220.719 212.275, 221.038 212 C 221.357 211.725, 224.733 207.675, 228.542 203 C 232.350 198.325, 235.719 194.275, 236.029 194 C 236.340 193.725, 238.817 190.575, 241.535 187 C 244.252 183.425, 247.016 179.825, 247.676 179 C 248.336 178.175, 250.979 174.882, 253.548 171.682 L 258.220 165.865 253.513 146.682 C 250.925 136.132, 248.572 126.250, 248.286 124.722 C 247.628 121.215, 247.267 121.044, 231 116.510 C 223.575 114.440, 215.572 112.129, 213.215 111.373 C 210.858 110.618, 208.046 110, 206.965 110 C 205.661 110, 205 109.321, 205 107.982 C 205 106.872, 204.134 102.709, 203.076 98.732 C 201.451 92.621, 198.301 80.610, 193.928 63.848 C 192.992 60.257, 192.845 60.167, 185.238 58.527 C 176.575 56.660, 168.074 54.730, 158.686 52.500 C 150.861 50.641, 149.310 50.628, 148.300 52.411 M 156.768 102.870 C 154.715 105.417, 152.015 108.682, 150.768 110.127 C 149.520 111.571, 146.700 114.914, 144.500 117.554 C 142.300 120.194, 140.025 122.837, 139.444 123.427 C 138.863 124.017, 135.086 128.550, 131.051 133.500 C 124.260 141.830, 119.246 147.805, 111.408 156.909 C 109.707 158.884, 107.457 161.583, 106.408 162.907 C 105.359 164.231, 103.072 166.946, 101.328 168.942 L 98.155 172.571 106.828 174.715 C 111.597 175.895, 118.650 177.598, 122.500 178.499 C 126.350 179.400, 130.850 180.541, 132.500 181.034 C 134.150 181.527, 136.674 182.164, 138.108 182.449 C 141.258 183.074, 142.525 186.233, 146.555 203.500 C 152.525 229.085, 152.459 228.873, 154.069 227.637 C 154.884 227.012, 159.420 222, 164.151 216.500 C 174.481 204.489, 193.245 182.797, 200.480 174.500 C 203.358 171.200, 208.063 165.802, 210.936 162.504 L 216.158 156.508 213.329 155.299 C 211.773 154.634, 209.569 154.070, 208.432 154.045 C 207.294 154.020, 204.144 153.383, 201.432 152.629 C 198.719 151.875, 193.800 150.683, 190.500 149.980 C 182.655 148.309, 173.748 146.100, 173.503 145.765 C 173.191 145.340, 164.936 113.898, 163.981 109.500 C 163.504 107.300, 162.525 103.867, 161.806 101.870 L 160.500 98.241 156.768 102.870 M 514.344 122.985 C 496.602 126.735, 485.150 144.857, 487.962 164.734 C 489.137 173.041, 492.295 179.043, 498.658 185.061 C 506.084 192.084, 511.497 194.229, 522 194.308 C 531.578 194.380, 535.987 192.717, 542.990 186.390 L 546.891 182.866 547.195 188.080 C 547.555 194.235, 549.332 195.973, 553.697 194.438 L 556.500 193.452 556.763 159.595 C 556.951 135.441, 556.701 125.345, 555.891 124.369 C 554.489 122.680, 549.822 122.578, 548.200 124.200 C 547.540 124.860, 547 127.283, 547 129.585 L 547 133.770 543.250 130.311 C 541.188 128.409, 537.655 126.006, 535.400 124.970 C 530.532 122.734, 520.159 121.756, 514.344 122.985 M 514.182 134.519 C 505.671 138.216, 501.069 143.864, 498.988 153.165 C 497.982 157.657, 497.989 159.791, 499.023 164.122 C 501.266 173.516, 505.671 178.758, 514.372 182.386 C 524.942 186.792, 538.222 181.377, 543.550 170.487 C 551.936 153.348, 540.491 132.999, 522.500 133.061 C 519.750 133.071, 516.007 133.727, 514.182 134.519 M 626.750 232.794 L 624 233.133 624 255.066 L 624 277 627.334 277 L 630.668 277 630.584 255.083 C 630.538 243.029, 630.275 233.007, 630 232.811 C 629.725 232.616, 628.263 232.608, 626.750 232.794 M 661.977 236.023 C 659.217 238.783, 660.853 242, 665.016 242 C 667.370 242, 668.096 241.467, 668.628 239.344 C 669.119 237.388, 668.811 236.335, 667.456 235.344 C 665.012 233.557, 664.362 233.638, 661.977 236.023 M 476.500 235.976 C 469.105 237.877, 464.990 241.161, 461.597 247.870 C 457.700 255.577, 459.401 266.335, 465.478 272.412 C 469.571 276.505, 477.427 278.542, 485.066 277.491 C 489.720 276.851, 490 276.643, 490 273.839 C 490 271.209, 489.740 270.948, 487.750 271.583 C 484.354 272.668, 477.510 272.338, 474.856 270.963 C 467.098 266.945, 463.899 257.866, 467.371 249.718 C 469.868 243.858, 472.725 242.137, 480.510 241.801 C 487.214 241.512, 487.512 241.393, 487.803 238.886 C 488.062 236.655, 487.640 236.178, 484.928 235.636 C 481.261 234.902, 480.568 234.930, 476.500 235.976 M 641.667 238.667 C 641.300 239.033, 641 241.058, 641 243.167 C 641 246.561, 640.721 247, 638.567 247 C 637.017 247, 635.906 247.722, 635.503 248.991 C 634.645 251.694, 635.640 253, 638.559 253 C 640.978 253, 641 253.088, 641.032 262.750 C 641.068 273.761, 641.951 275.789, 647.175 276.856 C 652.960 278.037, 656 277.202, 656 274.434 C 656 272.411, 655.507 272, 653.082 272 C 647.264 272, 647 271.561, 647 261.893 L 647 253 651 253 C 654.778 253, 655 252.833, 655 250 C 655 247.167, 654.778 247, 651 247 L 647 247 647 242.500 C 647 238.452, 646.765 238, 644.667 238 C 643.383 238, 642.033 238.300, 641.667 238.667 M 730.225 244.775 C 728.888 246.112, 727.277 246.457, 723.702 246.173 C 717.264 245.661, 714.701 246.453, 711.077 250.077 C 707.262 253.892, 706.872 259.170, 710.147 262.656 C 711.888 264.510, 712.062 265.221, 711.066 266.421 C 710.391 267.234, 709.973 269.466, 710.138 271.379 C 710.330 273.611, 709.821 275.540, 708.719 276.758 C 705.944 279.824, 706.434 286.571, 709.646 289.548 C 712.309 292.015, 714.856 292.439, 724.500 292.020 C 733.719 291.619, 740.590 282.707, 736.939 275.886 C 735.445 273.095, 731.664 271.797, 723 271.102 C 716.638 270.591, 715.500 270.224, 715.500 268.682 C 715.500 267.173, 716.494 266.804, 721.368 266.507 C 726.068 266.220, 727.787 265.620, 730.009 263.491 C 733.221 260.414, 734.279 256.460, 733.044 252.152 C 732.237 249.341, 732.385 249.074, 735.087 248.481 C 737.326 247.989, 738 247.281, 738 245.421 C 738 243.398, 737.507 243, 735 243 C 733.350 243, 731.201 243.799, 730.225 244.775 M 501.206 248.143 C 490.048 255.288, 492.411 275.298, 504.684 277.601 C 515.723 279.671, 523.877 272.646, 523.951 261 C 523.991 254.843, 522.054 250.993, 517.359 247.898 C 513.374 245.271, 505.505 245.390, 501.206 248.143 M 531.174 246.716 C 529.413 247.051, 529.037 247.566, 529.626 248.830 C 530.055 249.748, 530.526 256.350, 530.673 263.500 L 530.940 276.500 533.970 276.813 L 537 277.127 537 265.161 L 537 253.196 540.149 252.098 C 544.722 250.504, 546.734 250.734, 549.123 253.123 C 551.091 255.091, 551.214 256.046, 550.799 266.123 L 550.350 277 553.675 277 L 557 277 556.986 265.250 C 556.979 258.788, 556.722 252.566, 556.415 251.424 C 555.153 246.724, 543.894 244.100, 539.441 247.468 C 536.943 249.358, 536 249.366, 536 247.500 C 536 245.991, 535.447 245.901, 531.174 246.716 M 568.500 247.137 C 560.017 251.902, 561.786 259.467, 572.536 264.388 C 578.746 267.231, 580.296 269.561, 577.412 271.723 C 575.532 273.133, 570.444 273.018, 565.250 271.447 C 563.267 270.847, 563 271.121, 563 273.756 C 563 276.616, 563.218 276.767, 568.045 277.230 C 578.067 278.193, 583.018 276.057, 584.647 270.069 C 585.700 266.196, 583.010 262.806, 576.271 259.513 C 569.644 256.275, 568.251 254.608, 570.204 252.254 C 571.162 251.100, 572.768 250.900, 577.287 251.372 L 583.131 251.983 582.816 249.242 C 582.514 246.624, 582.228 246.489, 576.500 246.257 C 573.200 246.123, 569.600 246.520, 568.500 247.137 M 662.653 246.726 C 660.291 247.079, 659.906 247.522, 660.390 249.326 C 660.710 250.522, 660.979 257.238, 660.986 264.250 L 661 277 664 277 L 667 277 667 261.500 C 667 252.975, 666.663 246.067, 666.250 246.150 C 665.837 246.232, 664.219 246.491, 662.653 246.726 M 675.657 246.707 C 674.326 247.050, 673.975 247.782, 674.394 249.341 C 674.712 250.529, 674.979 257.266, 674.986 264.313 L 675 277.127 678.250 276.813 L 681.500 276.500 681.227 267 C 680.862 254.321, 681.174 253.328, 685.964 251.893 C 689.311 250.890, 690.296 250.964, 692.455 252.378 C 695.310 254.249, 695.401 254.795, 695.034 267.822 L 694.772 277.144 697.972 276.822 L 701.171 276.500 701.207 263.553 C 701.243 250.735, 701.216 250.583, 698.566 248.303 C 695.269 245.467, 687.686 245.131, 684.076 247.660 C 681.868 249.206, 681.623 249.206, 680.493 247.660 C 679.251 245.961, 678.854 245.883, 675.657 246.707 M 590.797 258.750 C 591.179 273.142, 592.007 275.630, 596.865 276.979 C 601.477 278.260, 602.654 278.214, 607.250 276.574 C 609.313 275.838, 611 275.633, 611 276.118 C 611 276.603, 612.350 277, 614 277 L 617 277 617 262 L 617 247 613.750 246.999 L 610.500 246.999 610.500 258.738 L 610.500 270.478 606.865 271.675 C 602.221 273.205, 599.093 272.374, 597.923 269.298 C 597.415 267.963, 597 262.399, 597 256.935 L 597 247 593.743 247 L 590.486 247 590.797 258.750 M 505.244 251.526 C 499.639 255.490, 498.608 263.832, 502.967 269.953 C 504.729 272.428, 505.845 273, 508.913 273 C 513.338 273, 515.812 270.767, 516.942 265.755 C 519.141 256.005, 511.703 246.958, 505.244 251.526 M 716.223 251.557 C 713.705 253.320, 713.306 257.502, 715.392 260.250 C 716.966 262.323, 724.217 262.673, 725.755 260.750 C 728.194 257.701, 728.147 255.056, 725.608 252.517 C 722.731 249.640, 719.439 249.304, 716.223 251.557 M 713.200 278.200 C 711.379 280.021, 711.763 283.763, 714 286 C 716.842 288.842, 725.713 288.800, 729.365 285.927 C 732.400 283.540, 732.779 280.312, 730.250 278.392 C 728.003 276.687, 714.861 276.539, 713.200 278.200" stroke="none" fill="#f5faf9" fill-rule="evenodd"/><path d="M 568.872 90.653 C 567.762 91.990, 567.443 101.209, 567.203 138.903 C 567.040 164.531, 567.177 186.983, 567.507 188.796 C 568.318 193.243, 571.887 194.959, 575.459 192.619 L 578 190.954 578 141.177 C 578 103.795, 577.701 91.101, 576.800 90.200 C 575.065 88.465, 570.472 88.727, 568.872 90.653 M 286 91.978 C 284.707 92.796, 284.462 99.610, 284.222 141.435 C 283.950 189.021, 283.983 189.983, 285.972 191.972 C 287.806 193.806, 289.270 194, 301.250 193.996 C 327.718 193.989, 341.826 189.468, 354.033 177.083 C 363.873 167.100, 368.033 156.839, 368.054 142.500 C 368.088 118.631, 352.526 98.558, 329.356 92.584 C 322.390 90.788, 288.630 90.317, 286 91.978 M 295.667 102.667 C 295.300 103.033, 295 121.033, 295 142.667 L 295 182 307.818 182 C 326.305 182, 335.887 178.868, 345.233 169.770 C 353.136 162.077, 357.781 149.141, 356.461 138.500 C 354.123 119.655, 340.382 105.782, 321.326 103.027 C 313.550 101.902, 296.668 101.665, 295.667 102.667 M 465.200 104.200 C 464.439 104.961, 464 108.800, 464 114.700 L 464 124 459 124 C 455.333 124, 453.467 124.533, 452 126 C 449.731 128.269, 449.565 129.318, 451.035 132.066 C 451.881 133.646, 453.161 134, 458.035 134 L 464 134 464 162.879 L 464 191.757 466.994 192.998 C 469.518 194.043, 470.382 193.980, 472.494 192.596 L 475 190.954 475 162.477 L 475 134 481.465 134 C 486.833 134, 488.105 133.672, 488.965 132.066 C 490.435 129.318, 490.269 128.269, 488 126 C 486.485 124.485, 484.667 124, 480.500 124 L 475 124 475 115.071 C 475 108.288, 474.622 105.765, 473.429 104.571 C 471.569 102.712, 466.899 102.501, 465.200 104.200 M 402.344 122.985 C 392.124 125.145, 383.688 132.218, 378.651 142.849 C 375.834 148.794, 375.502 150.455, 375.520 158.500 C 375.538 166.448, 375.900 168.260, 378.614 174 C 382.209 181.602, 389.621 189.026, 396.741 192.155 C 400.314 193.725, 403.618 194.255, 410 194.281 C 419.394 194.320, 423.837 192.716, 430.472 186.890 L 434 183.793 434 187.174 C 434 193.727, 438.881 196.999, 443.559 193.582 C 445.400 192.236, 445.515 190.503, 445.790 159.968 C 446.041 132.122, 445.869 127.450, 444.517 125.386 C 441.138 120.228, 434 123.602, 434 130.357 L 434 133.270 432.031 130.767 C 427.331 124.791, 412.362 120.868, 402.344 122.985 M 666.214 122.710 C 662.081 123.502, 656.318 130.033, 655.519 134.830 C 654.188 142.818, 655.631 147.729, 660.830 152.902 C 663.399 155.458, 667.750 158.833, 670.500 160.403 C 673.250 161.973, 677.188 164.866, 679.250 166.832 C 682.385 169.820, 683 171.074, 683 174.480 C 683 179.686, 680.892 182.656, 676.214 184.041 C 670.509 185.729, 665.074 183.573, 662.492 178.597 C 659.851 173.509, 657.891 172.302, 654.303 173.557 C 648.053 175.742, 651.501 186.854, 660.093 192.221 C 668.961 197.760, 684.590 195.432, 690.353 187.714 C 699.696 175.200, 694.315 160.668, 676.960 151.549 C 668.555 147.132, 665.792 143.923, 666.201 139.053 C 666.453 136.059, 667.095 135.210, 670.279 133.654 C 673.731 131.967, 674.262 131.942, 676.425 133.359 C 677.727 134.212, 679.627 136.618, 680.646 138.705 C 682.137 141.758, 683.124 142.560, 685.688 142.809 C 692.776 143.495, 693.552 133.706, 686.934 127.088 C 682.552 122.706, 674.792 121.067, 666.214 122.710 M 586.223 125.557 C 582.739 127.997, 583.458 131.557, 590.371 146.099 C 593.875 153.469, 598.150 162.537, 599.871 166.250 C 601.592 169.963, 604.388 175.968, 606.085 179.595 C 609.603 187.116, 609.559 187.611, 604.384 198.831 C 602.438 203.049, 600.146 208.075, 599.291 210 C 598.435 211.925, 596.864 215.392, 595.801 217.704 C 593.601 222.483, 593.737 227.821, 596.095 229.296 C 598.244 230.641, 602.946 229.352, 603.670 227.220 C 603.991 226.274, 605.275 223.250, 606.524 220.500 C 613.148 205.912, 615.518 200.759, 619.084 193.194 C 621.238 188.625, 623 184.684, 623 184.435 C 623 184.186, 625.475 178.755, 628.500 172.367 C 631.525 165.978, 634 160.585, 634 160.382 C 634 160.179, 636.077 155.622, 638.616 150.256 C 648.224 129.953, 648.660 128.134, 644.567 125.452 C 641.029 123.134, 638.335 124.992, 635.314 131.835 C 633.939 134.951, 631.919 139.525, 630.826 142 C 628.567 147.118, 622.812 159.988, 619.340 167.688 C 618.053 170.542, 617 173.354, 617 173.938 C 617 176.142, 615.439 174.814, 613.810 171.224 C 611.101 165.258, 605.491 152.999, 602.495 146.500 C 600.973 143.200, 598.239 137.266, 596.419 133.314 C 594.599 129.362, 592.214 125.650, 591.120 125.064 C 588.627 123.730, 588.864 123.706, 586.223 125.557 M 400.350 135.513 C 393.683 138.835, 390.489 142.612, 387.935 150.193 C 384.715 159.751, 386.701 169.597, 393.296 176.768 C 396.351 180.090, 405.281 184, 409.812 184 C 423.745 184, 434 173.250, 434 158.645 C 434 139.459, 416.530 127.450, 400.350 135.513" stroke="none" fill="#040506" fill-rule="evenodd"/></svg>